<?xml version="1.0" encoding="iso-8859-1"?>
<!-- Generator: Adobe Illustrator 19.0.0, SVG Export Plug-In . SVG Version: 6.00 Build 0)  -->
<svg version="1.1" id="Capa_1" xmlns="http://www.w3.org/2000/svg" xmlns:xlink="http://www.w3.org/1999/xlink" x="0px" y="0px"
	 viewBox="0 0 512 512" style="enable-background:new 0 0 512 512;" xml:space="preserve">
<g>
	<g>
		<g>
			<path d="M419.395,301.79c4.142,0,7.5-3.357,7.5-7.5v-9.292c0-4.142-3.358-7.5-7.5-7.5c-4.142,0-7.5,3.358-7.5,7.5v9.292
				C411.895,298.433,415.253,301.79,419.395,301.79z"/>
			<path d="M264.715,118.051c4.142,0,7.5-3.357,7.5-7.5c0-4.143-3.358-7.5-7.5-7.5H96.328c-4.142,0-7.5,3.357-7.5,7.5
				c0,4.142,3.358,7.5,7.5,7.5H264.715z"/>
			<path d="M512,328.06v-52.945c0-40.479-32.932-73.41-73.41-73.41h-14.929c-4.142,0-7.5,3.357-7.5,7.5s3.358,7.5,7.5,7.5h14.929
				c32.208,0,58.41,26.203,58.41,58.41v52.945c0,24.963-15.867,47.169-39.483,55.257c-3.425,1.173-5.523,4.624-4.988,8.204
				c2.982,19.953,12.402,38.811,26.569,53.201c-31.969-0.294-61.063-20.44-72.55-50.317l-1.201-3.125
				c-1.113-2.897-3.896-4.81-7-4.81h-165.31c-32.208,0-58.41-26.203-58.41-58.41v-52.945c0-32.207,26.203-58.41,58.41-58.41h104.291
				c0.005,0,0.011,0.001,0.016,0.001s0.01-0.001,0.014-0.001h45.614c4.142,0,7.5-3.357,7.5-7.5s-3.358-7.5-7.5-7.5H348.64
				c2.454-7.421,3.734-15.234,3.734-23.073v-52.945c0-40.479-32.932-73.41-73.411-73.41H73.41C32.932,52.275,0,85.207,0,125.686
				c0,4.143,3.358,7.5,7.5,7.5s7.5-3.357,7.5-7.5c0-32.207,26.203-58.41,58.41-58.41h205.553c32.207,0,58.411,26.203,58.411,58.41
				v52.945c0,8.053-1.614,15.79-4.767,23.073h-99.57c-26.549,0-49.85,14.167-62.744,35.337h-56.639c-3.104,0-5.887,1.912-7.001,4.81
				l-1.201,3.124c-11.484,29.871-40.566,50.015-72.549,50.317c14.159-14.377,23.585-33.241,26.568-53.2
				c0.535-3.58-1.563-7.031-4.988-8.204C30.867,225.801,15,203.595,15,178.631v-14.289c0-4.143-3.358-7.5-7.5-7.5
				s-7.5,3.357-7.5,7.5v14.289c0,29.181,17.251,55.363,43.543,67.061c-3.367,14.86-10.963,28.713-21.75,39.5
				c-4.221,4.221-5.472,10.511-3.188,16.025c2.284,5.516,7.617,9.079,13.587,9.079c18.982,0,37.285-5.681,52.931-16.428
				c15.148-10.405,26.757-24.84,33.663-41.827h44.575c-2.411,7.261-3.736,15.013-3.736,23.073v52.945
				c0,40.478,32.932,73.41,73.41,73.41h160.176c6.905,16.988,18.514,31.421,33.663,41.827
				c15.646,10.747,33.949,16.428,52.931,16.428c5.969,0,11.302-3.564,13.586-9.078c2.285-5.515,1.034-11.806-3.188-16.027
				c-10.787-10.786-18.382-24.64-21.75-39.499C494.748,383.422,512,357.239,512,328.06z"/>
			<path d="M96.328,148.261h133.477c4.142,0,7.5-3.357,7.5-7.5s-3.358-7.5-7.5-7.5H96.328c-4.142,0-7.5,3.357-7.5,7.5
				C88.828,144.903,92.186,148.261,96.328,148.261z"/>
			<path d="M243.344,284.998v9.292c0,4.143,3.358,7.5,7.5,7.5c4.142,0,7.5-3.357,7.5-7.5v-9.292c0-4.142-3.358-7.5-7.5-7.5
				C246.702,277.498,243.344,280.855,243.344,284.998z"/>
			<path d="M345.47,300.564c-1.806,4.103-5.869,6.755-10.351,6.755c-4.483,0-8.546-2.652-10.351-6.756
				c-1.668-3.792-6.094-5.513-9.885-3.846c-3.792,1.668-5.514,6.094-3.846,9.885c4.2,9.548,13.652,15.717,24.082,15.717
				c10.427,0,19.879-6.168,24.08-15.714c1.669-3.791-0.053-8.217-3.844-9.885C351.563,295.05,347.138,296.772,345.47,300.564z"/>
			<path d="M96.328,178.471h133.477c4.142,0,7.5-3.357,7.5-7.5s-3.358-7.5-7.5-7.5H96.328c-4.142,0-7.5,3.357-7.5,7.5
				C88.828,175.113,92.186,178.471,96.328,178.471z"/>
		</g>
	</g>
</g>
<g>
</g>
<g>
</g>
<g>
</g>
<g>
</g>
<g>
</g>
<g>
</g>
<g>
</g>
<g>
</g>
<g>
</g>
<g>
</g>
<g>
</g>
<g>
</g>
<g>
</g>
<g>
</g>
<g>
</g>
</svg>
