<svg id="Capa_1" enable-background="new 0 0 512 512" height="512" viewBox="0 0 512 512" width="512" xmlns="http://www.w3.org/2000/svg"><g><path d="m509.762 473.667c-12.15-28.349-39.929-46.667-70.772-46.667h-56.482l-77.5 77.5c0 4.142 3.358 7.5 7.5 7.5h171.979c9.272 0 17.854-4.621 22.958-12.362 5.103-7.74 5.97-17.449 2.317-25.971z" fill="#cb9d57"/><path d="m362.035 295.43c-18.815-27.964-45.392-49.221-76.776-61.426-40.678-15.819-70.478-49.773-81.237-91.121l-14.209-15.057 8.746-22.182 11.481-32.146c6.008-16.821 3.451-35.581-6.838-50.181-10.289-14.6-27.096-23.317-44.957-23.317h-45.545c-15.463 0-30.296 6.562-40.697 18.003l-33.633 36.997h-23.103c-2.261 0-4.521.419-6.567 1.38-5.458 2.565-8.695 7.926-8.695 13.62v45c0 19.253 15.729 34.954 35.061 35 12.948.031 23.624 9.977 24.826 22.619l-3.608 9.754c-16.737 45.238-11.567 96.098 13.721 137.006v135.191c-16.569 0-30 13.431-30 30v12.43c0 8.284 6.716 15 15 15h90 190c30.376 0 55-24.624 55-55v-68.389c0-33.128-9.476-65.694-27.97-93.181z" fill="#f9d080"/><g><path d="m362.035 295.43c-18.815-27.964-45.392-49.221-76.776-61.426-10.532-4.096-20.327-9.417-29.259-15.757v293.753h79.005c30.376 0 55-24.624 55-55v-68.389c0-33.128-9.476-65.694-27.97-93.181z" fill="#e7b963"/></g><path d="m325.005 372c-36.219 0-66.524 25.809-73.493 60h-16.507c-24.813 0-45 20.187-45 45v35h30v-35c0-8.271 6.729-15 15-15h30c8.284 0 15-6.716 15-15 0-24.813 20.187-45 45-45 8.284 0 15-6.716 15-15s-6.716-15-15-15z" fill="#e7b963"/><path d="m340.005 387c0-8.284-6.716-15-15-15-30.945 0-57.56 18.848-69.005 45.659v44.341h9.005c8.284 0 15-6.716 15-15 0-24.813 20.187-45 45-45 8.284 0 15-6.716 15-15z" fill="#cb9d57"/><g fill="#e7b963"><path d="m145.005 260c-8.284 0-15 6.716-15 15v237h30v-237c0-8.284-6.716-15-15-15z"/><path d="m176.545 120.324c-.811 0-1.642-.04-2.463-.116-11.329-1.068-19.784-9.023-21.541-20.266l-3.555-22.748c-1.28-8.185-8.957-13.784-17.136-12.504-8.185 1.279-13.783 8.951-12.504 17.136l3.555 22.748c3.884 24.854 23.32 43.14 48.373 45.502 1.756.165 3.529.248 5.271.248 9.992 0 19.395-2.656 27.478-7.44-1.688-6.487-2.924-13.151-3.642-19.961l-1.821-17.278c-3.524 9.868-11.669 14.679-22.015 14.679z"/></g></g></svg>